# xmcd CD database file
#
# Track frame offsets:
#	150
#	20413
#	45675
#	69850
#	88300
#	102525
#	125388
#	154075
#	185063
#	206800
#	221275
#	235350
#	248250
#	260188
#	275075
#	287525
#	300275
#	311375
#	325787
#	340287
#
# Disc length: 4687 seconds
#
# Revision: 0
# Processed by: cddbd v1.5.2PL0 Copyright (c) Steve Scherf et al.
# Submitted via: CDex 1.78
#
DISCID=23124d14
DTITLE=Dinah Washington and Quincy Jones - The Complete Sessions CD1
DYEAR=1900
DGENRE=Jazz
TTITLE0=I Could Write a Book
TTITLE1=Make the Man Love me
TTITLE2=Blue Gardenia
TTITLE3=You Don't Konw What Love Is
TTITLE4=My Old Flame
TTITLE5=Easy Living
TTITLE6=I Get a Kick Out of You
TTITLE7=This Can't Be Love
TTITLE8=If I Had You
TTITLE9=I Diddle (v1)
TTITLE10=I Diddle (v2)
TTITLE11=Wasn't It
TTITLE12=No (You Can Have Him)
TTITLE13=Ask a Woman Who Knows
TTITLE14=Relax, Max
TTITLE15=Tears To Burn
TTITLE16=The Kissing Way Home
TTITLE17=I Know
TTITLE18=I'll Drown in my Tears
TTITLE19=You Let my Love Grow Cold
EXTD=
EXTT0=
EXTT1=
EXTT2=
EXTT3=
EXTT4=
EXTT5=
EXTT6=
EXTT7=
EXTT8=
EXTT9=
EXTT10=
EXTT11=
EXTT12=
EXTT13=
EXTT14=
EXTT15=
EXTT16=
EXTT17=
EXTT18=
EXTT19=
PLAYORDER=
